<svg width="100%" height="100%" viewBox="0 0 18 18" fill="none" xmlns="http://www.w3.org/2000/svg">
    <path fill="currentColor"
        d="M0.110578 7.60171C0.38393 5.86254 1.16142 4.24176 2.34675 2.94006C3.53209 1.63837 5.07321 0.712958 6.77925 0.278423C8.4853 -0.156113 10.2813 -0.0806812 11.9449 0.495376C13.6085 1.07143 15.0666 2.12281 16.1387 3.51931L16.7153 4.27022V1.60605H18.0011V6.74923H12.858V5.46343H15.1525L14.7989 4.95779C13.993 3.80002 12.8592 2.90985 11.5432 2.40182C10.2273 1.89379 8.78941 1.79114 7.41464 2.10708C6.03986 2.42303 4.79107 3.1431 3.82894 4.17467C2.8668 5.20623 2.23534 6.50209 2.01581 7.89551L0.110578 7.60171ZM9.00057 17.9999C7.61961 18.0052 6.25624 17.6902 5.01762 17.0796C3.779 16.4689 2.69887 15.5793 1.86215 14.4807L1.2858 13.7285V16.3927H0V11.2495H5.14318V12.5353H2.84868L3.20227 13.0409C4.00817 14.1987 5.14203 15.0888 6.458 15.5968C7.77396 16.1048 9.21182 16.2074 10.5866 15.8915C11.9614 15.5756 13.2102 14.8555 14.1723 13.824C15.1345 12.7925 15.766 11.4966 15.9856 10.1032L17.8912 10.397C17.5592 12.5162 16.4808 14.447 14.8506 15.8411C13.2204 17.2352 11.1456 18.0009 9.00057 17.9999Z" />
</svg>