<svg width="100%" height="100%" viewBox="0 0 11 12" fill="currentColor" xmlns="http://www.w3.org/2000/svg">
    <path
        d="M0.731367 3.51562L1.35408 11.0329C1.3987 11.575 1.86047 12 2.40464 12H8.14226C8.68643 12 9.1482 11.575 9.19282 11.0329L9.81551 3.51562H0.731367ZM3.5153 10.5938C3.33127 10.5938 3.17644 10.4506 3.16477 10.2641L2.8132 4.59227C2.80118 4.3983 2.94846 4.23145 3.1421 4.21943C3.34294 4.20534 3.50259 4.35436 3.51495 4.54833L3.86651 10.2202C3.87895 10.4211 3.72002 10.5938 3.5153 10.5938ZM5.625 10.2422C5.625 10.4365 5.46776 10.5938 5.27344 10.5938C5.07912 10.5938 4.92188 10.4365 4.92188 10.2422V4.57031C4.92188 4.37599 5.07912 4.21875 5.27344 4.21875C5.46776 4.21875 5.625 4.37599 5.625 4.57031V10.2422ZM7.73367 4.5923L7.38211 10.2642C7.37055 10.4487 7.21673 10.6025 7.00927 10.5931C6.81563 10.581 6.66834 10.4142 6.68037 10.2202L7.03193 4.54835C7.04395 4.35438 7.2139 4.21327 7.40477 4.21945C7.59841 4.23148 7.7457 4.39833 7.73367 4.5923ZM9.84375 1.40625H7.73438V1.05469C7.73438 0.473109 7.26127 0 6.67969 0H3.86719C3.28561 0 2.8125 0.473109 2.8125 1.05469V1.40625H0.703125C0.314789 1.40625 0 1.72104 0 2.10938C0 2.49766 0.314789 2.8125 0.703125 2.8125H9.84375C10.2321 2.8125 10.5469 2.49766 10.5469 2.10938C10.5469 1.72104 10.2321 1.40625 9.84375 1.40625ZM7.03125 1.40625H3.51562V1.05469C3.51562 0.860719 3.67322 0.703125 3.86719 0.703125H6.67969C6.87366 0.703125 7.03125 0.860719 7.03125 1.05469V1.40625Z" />
</svg>