<svg width="100%" height="100%" viewBox="0 0 18 18" fill="currentColor" xmlns="http://www.w3.org/2000/svg">
    <path
        d="M4.12499 8.25001C0.728051 8.25001 0 7.52196 0 4.12499C0 0.728051 0.728051 0 4.12499 0C7.52196 0 8.24998 0.728051 8.24998 4.12499C8.25001 7.52196 7.52196 8.25001 4.12499 8.25001ZM4.12499 18C0.728051 18 0 17.2719 0 13.875C0 10.478 0.728051 9.75002 4.12499 9.75002C7.52196 9.75002 8.24998 10.478 8.24998 13.875C8.25001 17.2719 7.52196 18 4.12499 18ZM9.74999 13.875C9.74999 17.2719 10.478 18 13.875 18C17.272 18 18 17.2719 18 13.875C18 10.478 17.272 9.75002 13.875 9.75002C10.478 9.75002 9.74999 10.478 9.74999 13.875ZM14.625 1.50001C14.625 1.0858 14.2892 0.750023 13.875 0.750023C13.4608 0.750023 13.125 1.0858 13.125 1.50001V3.375H11.25C10.8358 3.375 10.5 3.71078 10.5 4.12499C10.5 4.5392 10.8358 4.87498 11.25 4.87498H13.125V6.75C13.125 7.16421 13.4608 7.49999 13.875 7.49999C14.2892 7.49999 14.625 7.16421 14.625 6.75V4.87501H16.5C16.9142 4.87501 17.2499 4.53923 17.2499 4.12502C17.2499 3.71081 16.9142 3.375 16.5 3.375H14.625V1.50001Z" />
</svg>