<svg width="100%" height="100%" viewBox="0 0 24 18" fill="none" xmlns="http://www.w3.org/2000/svg">
    <path fill="currentColor"
        d="M3.60417 8.0845e-05H3.60219C3.49245 -0.000155346 3.38375 0.0213498 3.28237 0.0633542C3.18098 0.105359 3.08893 0.16703 3.01151 0.244808C2.93258 0.323143 2.87 0.416377 2.8274 0.519098C2.78481 0.621819 2.76304 0.731979 2.76337 0.843181V13.4853C2.76337 13.9489 3.142 14.327 3.6075 14.3282C5.56992 14.3329 8.85776 14.7419 11.1259 17.1155V3.8851C11.1259 3.72795 11.0858 3.58032 11.01 3.45816C9.14842 0.460184 5.57103 0.00468188 3.60417 8.0845e-05ZM20.7974 13.4853V0.843102C20.7974 0.616858 20.7092 0.404337 20.5492 0.244729C20.4718 0.166971 20.3798 0.105312 20.2784 0.0633085C20.177 0.0213051 20.0684 -0.000211049 19.9586 1.56039e-06H19.9566C17.9898 0.00468192 14.4124 0.460184 12.5507 3.45816C12.475 3.58032 12.4349 3.72795 12.4349 3.8851V17.1154C14.7031 14.7418 17.9909 14.3328 19.9533 14.3281C20.4187 14.3269 20.7974 13.9488 20.7974 13.4853Z" />
    <path fill="currentColor"
        d="M22.7175 2.91559H22.1062V13.4854C22.1062 14.669 21.1418 15.6342 19.9563 15.6371C18.2917 15.6411 15.5471 15.9666 13.6034 17.8063C16.9651 16.9832 20.509 17.5182 22.5287 17.9785C22.6525 18.007 22.781 18.0072 22.9048 17.979C23.0286 17.9508 23.1444 17.8949 23.2436 17.8156C23.3427 17.7368 23.4226 17.6367 23.4775 17.5227C23.5324 17.4086 23.5607 17.2836 23.5604 17.1571V3.75853C23.5605 3.29375 23.1822 2.91559 22.7175 2.91559ZM1.45424 13.4854V2.91559H0.842942C0.378237 2.91559 0 3.29375 0 3.75853V17.1568C0 17.4146 0.115502 17.6547 0.316837 17.8153C0.415947 17.8947 0.531749 17.9506 0.655553 17.9788C0.779356 18.007 0.907944 18.0069 1.03166 17.9783C3.05136 17.5179 6.59535 16.9829 9.95696 17.806C8.01326 15.9664 5.26866 15.641 3.60412 15.6371C2.41872 15.6342 1.45424 14.669 1.45424 13.4854Z" />
</svg>