<svg width="100%" height="100%" viewBox="0 0 18 18" fill="none" xmlns="http://www.w3.org/2000/svg">
    <g clip-path="url(#clip0_7_373)">
        <path
            d="M6.93745 0H1.31245C0.588727 0 0 0.588727 0 1.31245V4.68745C0 5.41132 0.588727 6.00005 1.31245 6.00005H6.93745C7.66132 6.00005 8.25005 5.41132 8.25005 4.68745V1.31245C8.25005 0.588727 7.66132 0 6.93745 0ZM6.93745 7.49995H1.31245C0.588727 7.49995 0 8.08868 0 8.81255V16.6875C0 17.4113 0.588727 18 1.31245 18H6.93745C7.66132 18 8.25005 17.4113 8.25005 16.6875V8.81255C8.25005 8.08868 7.66132 7.49995 6.93745 7.49995ZM16.6875 12H11.0625C10.3387 12 9.74995 12.5887 9.74995 13.3125V16.6875C9.74995 17.4113 10.3387 18 11.0625 18H16.6875C17.4113 18 18 17.4113 18 16.6875V13.3125C18 12.5887 17.4113 12 16.6875 12ZM16.6875 0H11.0625C10.3387 0 9.74995 0.588727 9.74995 1.31245V9.18745C9.74995 9.91132 10.3387 10.5 11.0625 10.5H16.6875C17.4113 10.5 18 9.91132 18 9.18745V1.31245C18 0.588727 17.4113 0 16.6875 0Z"
            fill="currentColor" />
    </g>
    <defs>
        <clipPath id="clip0_7_373">
            <rect width="18" height="18" fill="currentColor" />
        </clipPath>
    </defs>
</svg>