<svg width="100%" height="100%" viewBox="0 0 21 18" fill="none" xmlns="http://www.w3.org/2000/svg">
    <path fill="currentColor"
        d="M0.589518 17.6856H1.76856C2.09413 17.6856 2.35807 17.4216 2.35807 17.0961V10.6114H0.589518C0.263947 10.6114 0 10.8753 0 11.2009V17.0961C0 17.4216 0.263947 17.6856 0.589518 17.6856ZM15.4061 0C12.8014 0 10.6899 2.11146 10.6899 4.71615C10.6899 7.32076 12.8014 9.43229 15.4061 9.43229C18.0108 9.43229 20.1222 7.32076 20.1222 4.71615C20.1222 2.11146 18.0108 0 15.4061 0ZM16.394 6.83786C16.2663 6.90169 16.1325 6.95195 15.9955 6.99V7.1529C15.9955 7.47847 15.7316 7.74242 15.406 7.74242C15.0804 7.74242 14.8165 7.47847 14.8165 7.1529V7.00843C14.5711 6.94665 14.3422 6.84278 14.1484 6.6974C13.8879 6.50207 13.8351 6.13256 14.0305 5.87207C14.2258 5.61166 14.5953 5.5588 14.8558 5.75417C15.0916 5.93103 15.5451 5.94415 15.8667 5.78333C15.996 5.71868 16.0658 5.64087 16.0658 5.6005C16.0658 5.52996 16.0658 5.51907 15.9873 5.47721C15.8335 5.39511 15.5615 5.34465 15.2985 5.29588C14.9473 5.23072 14.5842 5.16336 14.2696 4.99542C13.8101 4.75018 13.5672 4.34786 13.5672 3.83195C13.5672 3.31545 13.8769 2.86435 14.417 2.59435C14.5449 2.53068 14.6787 2.47952 14.8165 2.44159V2.27955C14.8165 1.95398 15.0804 1.69003 15.406 1.69003C15.7316 1.69003 15.9955 1.95398 15.9955 2.27955V2.4239C16.241 2.48572 16.4698 2.58968 16.6636 2.73505C16.9241 2.93042 16.9769 3.29993 16.7815 3.56038C16.5862 3.82083 16.2167 3.87365 15.9562 3.67828C15.7201 3.50115 15.2661 3.48802 14.9443 3.64888C14.8142 3.71389 14.7463 3.79017 14.7463 3.83191C14.7463 3.90249 14.7463 3.91334 14.8247 3.95524C14.9785 4.03734 15.2505 4.0878 15.5135 4.13657C15.8647 4.20173 16.2278 4.2691 16.5425 4.43703C17.0019 4.68227 17.2448 5.0846 17.2448 5.6005C17.2448 6.11649 16.9347 6.56751 16.394 6.83786ZM10.6428 18H10.7725C12.7533 17.9764 14.6515 17.4145 16.3258 16.4004L19.6153 14.1013C20.1694 13.7122 20.2755 12.9812 19.91 12.4625C19.5327 11.9201 18.8017 11.7904 18.2712 12.1677L15.1114 14.3843C14.0974 14.9738 12.8594 15.1035 11.7393 14.7262L8.10395 13.5235C7.7974 13.4292 7.6323 13.0873 7.73845 12.7808C7.83273 12.486 8.13928 12.321 8.44583 12.4035C8.45762 12.4035 12.5292 13.724 12.5292 13.724C13.2149 13.9295 13.824 13.5416 14.0148 12.9694C14.2152 12.3445 13.8733 11.6843 13.2602 11.4839L7.71483 9.66814C6.50192 9.22659 4.86742 9.31781 3.53711 10.0617V16.6612L8.16286 17.7092C9.01024 17.8956 9.84169 18 10.6428 18Z" />
</svg>