<svg width="100%" height="100%" viewBox="0 0 11 15" fill="currentColor" xmlns="http://www.w3.org/2000/svg">
    <path
        d="M7.27182 10.3115L7.91202 9.27269L9.06735 8.87867L9.19535 7.66524L10.0646 6.80951L9.65131 5.66091L10.0646 4.51228L9.19537 3.65656L9.06738 2.44316L7.91205 2.04913L7.27185 1.01026L6.06093 1.15647L5.03229 0.5L4.00364 1.15652L2.79275 1.01032L2.15255 2.04916L0.997227 2.44318L0.869231 3.65659L0 4.51231L0.413273 5.66094L0 6.80957L0.869203 7.66527L0.997199 8.8787L2.15253 9.27272L2.79273 10.3116L4.00364 10.1654L5.03229 10.8219L6.06093 10.1654L7.27182 10.3115ZM1.49321 5.66094C1.49321 3.7095 3.08085 2.12187 5.03229 2.12187C6.98373 2.12187 8.57136 3.7095 8.57136 5.66094C8.57136 7.61238 6.98373 9.20002 5.03229 9.20002C3.08085 9.20002 1.49321 7.61238 1.49321 5.66094Z" />
    <path
        d="M5.03229 2.94269C3.53344 2.94269 2.31405 4.16208 2.31405 5.66093C2.31405 7.15978 3.53344 8.37917 5.03229 8.37917C6.53114 8.37917 7.75053 7.15978 7.75053 5.66093C7.75053 4.16208 6.53114 2.94269 5.03229 2.94269ZM3.81 11.0155L2.36953 11.1894L1.60847 9.95439L1.34975 9.86618L0.233765 13.3543L2.24285 13.2438L3.8147 14.5L4.73969 11.6089L3.81 11.0155ZM8.45611 9.95442L7.69503 11.1894L6.25458 11.0155L5.3249 11.6089L6.24988 14.5L7.82174 13.2438L9.83082 13.3543L8.71484 9.86618L8.45611 9.95442Z" />
</svg>