<svg width="100%" height="100%" viewBox="0 0 18 18" fill="none" xmlns="http://www.w3.org/2000/svg">
    <path fill="currentColor"
        d="M17.6004 7.43393L15.5357 6.92617C15.4114 6.53458 15.252 6.15504 15.0593 5.79217C15.3693 5.27614 16.0208 4.19006 16.0208 4.19006C16.0813 4.08921 16.1064 3.97103 16.092 3.8543C16.0776 3.73757 16.0247 3.62899 15.9415 3.54582L14.4501 2.05443C14.3671 1.97103 14.2585 1.91789 14.1417 1.90351C14.0249 1.88913 13.9066 1.91434 13.8059 1.97511L12.2012 2.9366C11.8403 2.74563 11.4631 2.58758 11.0739 2.46435L10.5661 0.399656C10.5377 0.285541 10.4719 0.184216 10.3792 0.111798C10.2865 0.03938 10.1723 2.76071e-05 10.0547 0L7.94531 0C7.70326 0 7.49211 0.164812 7.43393 0.399621C7.43393 0.399621 7.08219 1.84068 6.92666 2.46382C6.51228 2.59495 6.11149 2.76569 5.72984 2.97366L4.06593 1.97511C3.85787 1.8515 3.59318 1.88346 3.42169 2.05443L1.93029 3.54582C1.84713 3.62899 1.79415 3.73757 1.77978 3.8543C1.76541 3.97103 1.79047 4.08921 1.85098 4.19006L2.87993 5.90857C2.71423 6.23549 2.57525 6.57528 2.46435 6.92462L0.399656 7.43393C0.285541 7.46237 0.184213 7.52816 0.111794 7.62082C0.0393746 7.71349 2.31968e-05 7.82771 0 7.94531L0 10.0547C0 10.2967 0.164812 10.5079 0.399621 10.5661L2.46484 11.0738C2.59 11.4709 2.7527 11.8566 2.94996 12.2269L2.02918 13.7615C1.96867 13.8624 1.94361 13.9806 1.95798 14.0973C1.97235 14.214 2.02533 14.3226 2.1085 14.4058L3.59989 15.8972C3.77037 16.0676 4.03608 16.1 4.24413 15.9765C4.24413 15.9765 5.27667 15.3575 5.78239 15.0546C6.14833 15.2497 6.53137 15.4109 6.9267 15.5361L7.43396 17.6003C7.49211 17.8352 7.70326 18 7.94531 18H10.0547C10.1723 18 10.2865 17.9606 10.3792 17.8882C10.4718 17.8158 10.5376 17.7145 10.5661 17.6004L11.0733 15.5362C11.4782 15.408 11.87 15.2416 12.2434 15.0392C12.763 15.3508 13.8058 15.9765 13.8058 15.9765C14.0134 16.1006 14.2791 16.0687 14.4501 15.8972L15.9415 14.4058C16.0246 14.3226 16.0776 14.214 16.092 14.0973C16.1063 13.9806 16.0813 13.8624 16.0208 13.7615L15.0727 12.1821C15.2596 11.8271 15.4145 11.4563 15.5357 11.0738L17.6003 10.5661C17.7145 10.5376 17.8158 10.4719 17.8882 10.3792C17.9606 10.2865 18 10.1723 18 10.0547V7.94531C18 7.82771 17.9606 7.71349 17.8882 7.62083C17.8158 7.52817 17.7145 7.46238 17.6004 7.43393ZM9 12.6914C6.96477 12.6914 5.30859 11.0352 5.30859 9C5.30859 6.96477 6.96477 5.30859 9 5.30859C11.0352 5.30859 12.6914 6.96477 12.6914 9C12.6914 11.0352 11.0352 12.6914 9 12.6914Z" />
</svg>