<svg width="100%" height="100%" viewBox="0 0 15 15" fill="currentColor" xmlns="http://www.w3.org/2000/svg">
    <path
        d="M13.7619 7.12967L11.749 6.55446C10.8426 6.2989 10.0169 5.815 9.35094 5.14906C8.685 4.48311 8.2011 3.65741 7.94554 2.75095L7.37033 0.738073C7.3414 0.667649 7.29219 0.607415 7.22895 0.565024C7.16571 0.522633 7.09129 0.5 7.01516 0.5C6.93902 0.5 6.86461 0.522633 6.80137 0.565024C6.73813 0.607415 6.68892 0.667649 6.65999 0.738073L6.08477 2.75095C5.82922 3.65741 5.34532 4.48311 4.67937 5.14906C4.01343 5.815 3.18772 6.2989 2.28127 6.55446L0.26839 7.12967C0.191102 7.15161 0.12308 7.19816 0.074643 7.26225C0.0262064 7.32635 0 7.4045 0 7.48484C0 7.56518 0.0262064 7.64333 0.074643 7.70743C0.12308 7.77153 0.191102 7.81808 0.26839 7.84001L2.28127 8.41523C3.18772 8.67078 4.01343 9.15468 4.67937 9.82063C5.34532 10.4866 5.82922 11.3123 6.08477 12.2187L6.65999 14.2316C6.68192 14.3089 6.72847 14.3769 6.79257 14.4254C6.85667 14.4738 6.93482 14.5 7.01516 14.5C7.0955 14.5 7.17365 14.4738 7.23775 14.4254C7.30184 14.3769 7.34839 14.3089 7.37033 14.2316L7.94554 12.2187C8.2011 11.3123 8.685 10.4866 9.35094 9.82063C10.0169 9.15468 10.8426 8.67078 11.749 8.41523L13.7619 7.84001C13.8392 7.81808 13.9072 7.77153 13.9557 7.70743C14.0041 7.64333 14.0303 7.56518 14.0303 7.48484C14.0303 7.4045 14.0041 7.32635 13.9557 7.26225C13.9072 7.19816 13.8392 7.15161 13.7619 7.12967Z" />
</svg>