<svg width="100%" height="100%" viewBox="0 0 11 15" fill="currentColor" xmlns="http://www.w3.org/2000/svg">
    <path
        d="M8.88464 5.8136C8.84688 5.76629 8.8011 5.77559 8.77712 5.78524C8.75703 5.79339 8.71098 5.81942 8.71735 5.88466C8.72501 5.963 8.7293 6.04288 8.73012 6.12209C8.73354 6.45071 8.60171 6.77265 8.36847 7.00538C8.13671 7.23659 7.83188 7.36117 7.50731 7.35756C7.06396 7.3519 6.69624 7.12066 6.44388 6.68882C6.23522 6.33173 6.32693 5.87118 6.42403 5.38356C6.48085 5.09815 6.53961 4.803 6.53961 4.5221C6.53961 2.3349 5.06923 1.07304 4.19275 0.515528C4.17462 0.504016 4.15737 0.499969 4.14209 0.499969C4.11723 0.499969 4.09754 0.510688 4.08783 0.517251C4.06902 0.529993 4.03892 0.559032 4.0486 0.610438C4.38361 2.38948 3.38436 3.45947 2.32643 4.59226C1.23596 5.75992 0 7.08339 0 9.47028C0 12.2437 2.25632 14.5 5.02975 14.5C7.31328 14.5 9.32662 12.908 9.92578 10.6284C10.3344 9.07412 9.9062 7.09422 8.88464 5.8136ZM5.15523 13.4264C4.46075 13.4581 3.80029 13.209 3.29582 12.7267C2.79677 12.2495 2.51054 11.5835 2.51054 10.8995C2.51054 9.61599 3.0013 8.67373 4.3213 7.42281C4.3429 7.40232 4.36502 7.39584 4.3843 7.39584C4.40177 7.39584 4.41692 7.40118 4.42734 7.40618C4.44929 7.41676 4.48539 7.44296 4.48052 7.49961C4.43332 8.04881 4.43414 8.50466 4.48292 8.85455C4.60761 9.74828 5.26187 10.3488 6.11103 10.3488C6.52736 10.3488 6.92393 10.1921 7.22769 9.90759C7.23942 9.89632 7.25372 9.88809 7.26936 9.88362C7.285 9.87916 7.3015 9.87859 7.31741 9.88197C7.33739 9.88629 7.36416 9.89854 7.37819 9.93236C7.50414 10.2365 7.5685 10.5592 7.56949 10.8917C7.57351 12.2295 6.49048 13.3666 5.15523 13.4264Z" />
</svg>